<svg width="181" height="48" viewBox="0 0 181 48" fill="none" xmlns="http://www.w3.org/2000/svg">
<path d="M9.168 34.48C10.064 34.48 10.88 34.3573 11.616 34.112C12.3627 33.8773 13.0293 33.5467 13.616 33.12V34.768C13.6373 35.9947 13.2587 36.9227 12.48 37.552C11.712 38.1813 10.7253 38.496 9.52 38.496C8.83733 38.496 8.192 38.3413 7.584 38.032C6.976 37.7227 6.512 37.2587 6.192 36.64L2.64 38.4C3.312 39.5733 4.26133 40.4907 5.488 41.152C6.72533 41.824 8.064 42.16 9.504 42.16C11.456 42.16 13.1307 41.76 14.528 40.96C15.936 40.1707 16.8373 38.9387 17.232 37.264C17.3173 36.88 17.376 36.4907 17.408 36.096C17.4507 35.7013 17.472 35.28 17.472 34.832V16.72H14.096V17.968C13.488 17.4133 12.784 16.9867 11.984 16.688C11.184 16.3893 10.2933 16.24 9.312 16.24C7.68 16.24 6.26133 16.6347 5.056 17.424C3.86133 18.2133 2.93333 19.296 2.272 20.672C1.61067 22.048 1.28 23.6107 1.28 25.36C1.28 27.088 1.60533 28.64 2.256 30.016C2.90667 31.392 3.824 32.48 5.008 33.28C6.192 34.08 7.57867 34.48 9.168 34.48ZM9.76 31.024C8.75733 31.024 7.93067 30.7733 7.28 30.272C6.62933 29.76 6.144 29.0773 5.824 28.224C5.51467 27.3707 5.36 26.416 5.36 25.36C5.36 24.3147 5.52 23.3653 5.84 22.512C6.17067 21.648 6.66667 20.9653 7.328 20.464C8 19.952 8.85333 19.696 9.888 19.696C11.36 19.696 12.4267 20.2187 13.088 21.264C13.76 22.3093 14.096 23.6747 14.096 25.36C14.096 27.0347 13.76 28.4 13.088 29.456C12.4267 30.5013 11.3173 31.024 9.76 31.024ZM22.2788 14.096H26.1348V10.56H22.2788V14.096ZM22.2788 34H26.1348V16.72H22.2788V34ZM41.0555 34V30.768C39.9782 30.928 39.0182 30.9707 38.1755 30.896C37.3328 30.8213 36.7195 30.464 36.3355 29.824C36.1328 29.4933 36.0208 29.0667 35.9995 28.544C35.9888 28.0107 35.9835 27.4027 35.9835 26.72V19.744H41.0555V16.72H35.9835V11.92H32.1435V16.72H29.0075V19.744H32.1435V26.944C32.1435 27.936 32.1542 28.8213 32.1755 29.6C32.1968 30.368 32.4048 31.1253 32.7995 31.872C33.2475 32.6933 33.9035 33.296 34.7675 33.68C35.6315 34.0533 36.6075 34.2507 37.6955 34.272C38.7942 34.304 39.9142 34.2133 41.0555 34ZM44.7393 34H48.6433V25.12C48.6433 23.7227 48.8406 22.6453 49.2353 21.888C49.6406 21.12 50.1526 20.592 50.7713 20.304C51.4006 20.0053 52.0406 19.856 52.6913 19.856C53.6086 19.856 54.3393 20.0587 54.8833 20.464C55.4273 20.8587 55.8273 21.3653 56.0833 21.984C56.3499 22.592 56.5206 23.2267 56.5953 23.888C56.6806 24.5493 56.7233 25.1467 56.7233 25.68V34H60.6273V24.352C60.6273 23.9467 60.5899 23.408 60.5153 22.736C60.4513 22.064 60.3019 21.3547 60.0673 20.608C59.8326 19.8613 59.4699 19.1573 58.9792 18.496C58.4886 17.824 57.8219 17.28 56.9793 16.864C56.1473 16.4373 55.0966 16.224 53.8273 16.224C52.5793 16.224 51.4806 16.4427 50.5312 16.88C49.5926 17.3067 48.8086 17.8933 48.1793 18.64V10.96H44.7393V34ZM71.2825 34.496C72.5305 34.496 73.6238 34.2827 74.5625 33.856C75.5118 33.4187 76.3012 32.8267 76.9305 32.08V34H80.3385V16.72H76.4665V25.6C76.4665 26.9973 76.2638 28.08 75.8585 28.848C75.4638 29.6053 74.9572 30.1333 74.3385 30.432C73.7198 30.72 73.0798 30.864 72.4185 30.864C71.5012 30.864 70.7705 30.6667 70.2265 30.272C69.6825 29.8667 69.2772 29.36 69.0105 28.752C68.7545 28.1333 68.5838 27.4933 68.4985 26.832C68.4238 26.1707 68.3865 25.5733 68.3865 25.04V16.72H64.4825V26.368C64.4825 26.7733 64.5145 27.312 64.5785 27.984C64.6532 28.656 64.8078 29.3653 65.0425 30.112C65.2772 30.8587 65.6398 31.568 66.1305 32.24C66.6212 32.9013 67.2825 33.4453 68.1145 33.872C68.9572 34.288 70.0132 34.496 71.2825 34.496ZM84.8018 34H88.2098V32.72C88.8284 33.2747 89.5484 33.7067 90.3698 34.016C91.1911 34.3253 92.1138 34.48 93.1378 34.48C94.7378 34.48 96.1244 34.08 97.2978 33.28C98.4818 32.48 99.3991 31.392 100.05 30.016C100.7 28.64 101.026 27.088 101.026 25.36C101.026 23.6107 100.695 22.048 100.034 20.672C99.3831 19.296 98.4551 18.2133 97.2498 17.424C96.0444 16.6347 94.6258 16.24 92.9938 16.24C92.1298 16.24 91.3404 16.3573 90.6258 16.592C89.9111 16.816 89.2658 17.1413 88.6898 17.568V10.96H84.8018V34ZM92.5458 31.024C90.9991 31.024 89.8898 30.5013 89.2178 29.456C88.5458 28.4 88.2098 27.0347 88.2098 25.36C88.2098 23.6747 88.5404 22.3093 89.2018 21.264C89.8738 20.2187 90.9458 19.696 92.4178 19.696C93.4524 19.696 94.3004 19.952 94.9618 20.464C95.6338 20.9653 96.1298 21.648 96.4498 22.512C96.7804 23.3653 96.9458 24.3147 96.9458 25.36C96.9458 26.416 96.7858 27.3707 96.4658 28.224C96.1564 29.0773 95.6764 29.76 95.0258 30.272C94.3751 30.7733 93.5484 31.024 92.5458 31.024ZM110.818 34.48C113.048 34.48 114.792 33.984 116.05 32.992C117.32 32 117.954 30.6347 117.954 28.896C117.954 27.552 117.528 26.496 116.674 25.728C115.832 24.96 114.376 24.3093 112.306 23.776C110.962 23.4347 109.949 23.1467 109.266 22.912C108.594 22.6773 108.146 22.4427 107.922 22.208C107.698 21.9733 107.586 21.6907 107.586 21.36C107.586 20.784 107.864 20.336 108.418 20.016C108.973 19.6853 109.704 19.5413 110.61 19.584C111.549 19.6373 112.301 19.8773 112.866 20.304C113.442 20.7307 113.784 21.312 113.89 22.048L117.826 21.344C117.613 19.7867 116.85 18.5493 115.538 17.632C114.226 16.704 112.562 16.24 110.546 16.24C108.488 16.24 106.84 16.72 105.602 17.68C104.365 18.64 103.746 19.9307 103.746 21.552C103.746 22.8427 104.178 23.8613 105.042 24.608C105.917 25.3547 107.437 26.0107 109.602 26.576C110.904 26.9173 111.864 27.2053 112.482 27.44C113.112 27.664 113.522 27.8933 113.714 28.128C113.906 28.3627 114.002 28.6773 114.002 29.072C114.002 29.712 113.746 30.2187 113.234 30.592C112.722 30.9547 112.008 31.136 111.09 31.136C110.034 31.136 109.154 30.8907 108.45 30.4C107.757 29.9093 107.314 29.2373 107.122 28.384L103.186 28.992C103.474 30.7307 104.285 32.08 105.618 33.04C106.952 34 108.685 34.48 110.818 34.48ZM131.587 34V30.768C130.509 30.928 129.549 30.9707 128.707 30.896C127.864 30.8213 127.251 30.464 126.867 29.824C126.664 29.4933 126.552 29.0667 126.531 28.544C126.52 28.0107 126.515 27.4027 126.515 26.72V19.744H131.587V16.72H126.515V11.92H122.675V16.72H119.539V19.744H122.675V26.944C122.675 27.936 122.685 28.8213 122.707 29.6C122.728 30.368 122.936 31.1253 123.331 31.872C123.779 32.6933 124.435 33.296 125.299 33.68C126.163 34.0533 127.139 34.2507 128.227 34.272C129.325 34.304 130.445 34.2133 131.587 34ZM140.135 34.48C141.511 34.48 142.679 34.256 143.639 33.808C144.609 33.3493 145.463 32.64 146.199 31.68V34H149.575V23.392C149.575 22.6453 149.543 21.9573 149.479 21.328C149.415 20.688 149.228 20.064 148.919 19.456C148.353 18.3147 147.484 17.4933 146.311 16.992C145.148 16.4907 143.799 16.24 142.263 16.24C140.236 16.24 138.62 16.6827 137.415 17.568C136.209 18.4533 135.393 19.6267 134.967 21.088L138.487 22.192C138.775 21.3067 139.281 20.6827 140.007 20.32C140.732 19.9573 141.484 19.776 142.263 19.776C143.436 19.776 144.3 20.016 144.855 20.496C145.409 20.9653 145.724 21.696 145.799 22.688C144.284 22.912 142.876 23.1307 141.575 23.344C140.284 23.5467 139.185 23.7973 138.279 24.096C136.913 24.5653 135.916 25.232 135.287 26.096C134.657 26.9493 134.343 28.0053 134.343 29.264C134.343 30.2133 134.561 31.0827 134.999 31.872C135.447 32.6613 136.103 33.296 136.967 33.776C137.831 34.2453 138.887 34.48 140.135 34.48ZM140.903 31.408C139.996 31.408 139.303 31.2 138.823 30.784C138.353 30.368 138.119 29.8453 138.119 29.216C138.119 28.6507 138.3 28.192 138.663 27.84C139.036 27.488 139.553 27.1893 140.215 26.944C140.823 26.7413 141.553 26.5653 142.407 26.416C143.26 26.256 144.375 26.0693 145.751 25.856C145.74 26.2613 145.713 26.7147 145.671 27.216C145.628 27.7067 145.527 28.1493 145.367 28.544C145.239 28.9387 144.988 29.36 144.615 29.808C144.252 30.256 143.761 30.6347 143.143 30.944C142.524 31.2533 141.777 31.408 140.903 31.408ZM153.74 34H157.612V25.216C157.612 24.2133 157.793 23.3227 158.156 22.544C158.529 21.7653 159.111 21.1627 159.9 20.736C160.433 20.4267 161.031 20.2453 161.692 20.192C162.353 20.128 162.945 20.1707 163.468 20.32V16.72C162.689 16.6027 161.889 16.6187 161.068 16.768C160.247 16.9067 159.516 17.1947 158.876 17.632C158.513 17.856 158.188 18.128 157.9 18.448C157.612 18.7573 157.361 19.104 157.148 19.488V16.72H153.74V34ZM172.568 34.48C174.798 34.48 176.542 33.984 177.8 32.992C179.07 32 179.704 30.6347 179.704 28.896C179.704 27.552 179.278 26.496 178.424 25.728C177.582 24.96 176.126 24.3093 174.056 23.776C172.712 23.4347 171.699 23.1467 171.016 22.912C170.344 22.6773 169.896 22.4427 169.672 22.208C169.448 21.9733 169.336 21.6907 169.336 21.36C169.336 20.784 169.614 20.336 170.168 20.016C170.723 19.6853 171.454 19.5413 172.36 19.584C173.299 19.6373 174.051 19.8773 174.616 20.304C175.192 20.7307 175.534 21.312 175.64 22.048L179.576 21.344C179.363 19.7867 178.6 18.5493 177.288 17.632C175.976 16.704 174.312 16.24 172.296 16.24C170.238 16.24 168.59 16.72 167.352 17.68C166.115 18.64 165.496 19.9307 165.496 21.552C165.496 22.8427 165.928 23.8613 166.792 24.608C167.667 25.3547 169.187 26.0107 171.352 26.576C172.654 26.9173 173.614 27.2053 174.232 27.44C174.862 27.664 175.272 27.8933 175.464 28.128C175.656 28.3627 175.752 28.6773 175.752 29.072C175.752 29.712 175.496 30.2187 174.984 30.592C174.472 30.9547 173.758 31.136 172.84 31.136C171.784 31.136 170.904 30.8907 170.2 30.4C169.507 29.9093 169.064 29.2373 168.872 28.384L164.936 28.992C165.224 30.7307 166.035 32.08 167.368 33.04C168.702 34 170.435 34.48 172.568 34.48Z" fill="white"/>
<rect x="23" y="40" width="156" height="8" rx="4" fill="#F33363"/>
</svg>
